<?xml version="1.0" encoding="utf-8"?>
<!-- Generator: Adobe Illustrator 17.0.0, SVG Export Plug-In . SVG Version: 6.00 Build 0)  -->
<!DOCTYPE svg PUBLIC "-//W3C//DTD SVG 1.1//EN" "http://www.w3.org/Graphics/SVG/1.1/DTD/svg11.dtd">
<svg version="1.1" id="Layer_1" xmlns="http://www.w3.org/2000/svg" xmlns:xlink="http://www.w3.org/1999/xlink" x="0px" y="0px"
	 width="60.8px" height="29.991px" viewBox="0 0 60.8 29.991" enable-background="new 0 0 60.8 29.991" xml:space="preserve">
<g>
	<g>
		<g>
			<path fill="#84764D" d="M29.709,11.401c-0.269-0.424,0.125-1.545,0.659-2.329c0.117-0.17,0.055-0.428-0.141-0.576
				c-0.194-0.146-0.445-0.127-0.561,0.042c-0.142,0.206-1.36,2.054-0.631,3.208c0.198,0.313,0.609,0.679,1.457,0.706
				c0.045,0,0.093,0,0.141,0c0.89-0.011,1.583-0.446,2.104-0.986c0.018,0.061,0.041,0.123,0.069,0.176
				c0.108,0.212,0.287,0.37,0.505,0.447c0.873,0.305,1.659-0.409,2.421-1.102c0.301-0.272,0.72-0.654,1.003-0.784
				c-0.007,0.237-0.058,0.585-0.087,0.781c-0.087,0.579-0.126,0.843,0.085,1.078c0.105,0.115,0.252,0.184,0.39,0.179
				c0.242-0.005,0.363-0.173,0.63-0.543c0.406-0.569,1.163-1.631,1.963-1.301c0.254,0.104,0.409,0.391,0.617,0.818
				c0.207,0.428,0.442,0.911,0.944,1.054c0.486,0.138,1.02-0.119,1.787-0.862c0.148-0.143,0.128-0.399-0.044-0.574
				c-0.172-0.173-0.431-0.198-0.578-0.055c-0.799,0.774-1.06,0.71-1.07,0.71c-0.071-0.021-0.241-0.371-0.313-0.519
				c-0.217-0.447-0.514-1.06-1.149-1.319c-1.019-0.419-1.811,0.212-2.363,0.861c0.026-0.382-0.011-0.664-0.177-0.885
				c-0.106-0.141-0.253-0.235-0.415-0.268c-0.612-0.117-1.178,0.392-1.829,0.985c-0.505,0.458-1.188,1.08-1.619,0.994
				c-0.065-0.226,0.06-0.848,0.288-1.488c0.126-0.281,0.192-0.477,0.201-0.508c0.064-0.194-0.05-0.431-0.256-0.539
				c-0.207-0.106-0.435-0.044-0.516,0.142c-0.049,0.108-0.122,0.282-0.199,0.494c-0.344,0.757-1.174,2.18-2.543,2.199
				C30.251,11.641,29.842,11.613,29.709,11.401z"/>
			<path fill="#84764D" d="M23.65,21.635c-2.177,0-4.226-0.242-5.772-0.68c-1.333-0.379-2.922-1.104-2.922-2.408
				c0-0.436,0.261-0.868,0.776-1.282c1.529-1.23,5.781-2.621,11.91-3.033c-0.325-0.198-0.656-0.395-0.985-0.591
				c-3.293-1.964-7.026-4.19-7.026-7.37c0-2.831,4.126-4.851,7.66-5.719c1.666-0.41,3.307-0.602,4.624-0.541
				c1.585,0.073,2.591,0.494,2.988,1.254c0.296,0.564,0.328,1.149,0.094,1.689c-0.626,1.446-2.968,2.134-3.232,2.207
				c-0.277,0.077-0.565-0.085-0.642-0.363c-0.077-0.277,0.085-0.565,0.362-0.642l0,0c0.587-0.164,2.191-0.775,2.555-1.617
				c0.109-0.251,0.089-0.502-0.062-0.79c-0.394-0.753-2.967-1.037-6.439-0.183c-3.307,0.813-6.866,2.633-6.866,4.706
				c0,2.587,3.463,4.652,6.517,6.473c0.802,0.478,1.574,0.939,2.274,1.396c4.545-0.148,9.969,0.239,15.989,1.554
				c0.282,0.062,0.46,0.339,0.398,0.621c-0.061,0.282-0.34,0.459-0.621,0.398c-5.303-1.158-10.162-1.577-14.338-1.546
				c1.103,0.898,1.811,1.827,1.811,2.898c0,0.845-0.528,2.018-3.044,2.803C28.082,21.363,25.947,21.635,23.65,21.635z
				 M29.179,15.208c-6.648,0.255-11.288,1.659-12.792,2.87C16.069,18.333,16,18.503,16,18.547c0,0.988,3.074,2.045,7.651,2.045
				c2.194,0,4.218-0.255,5.699-0.717c0.863-0.27,2.312-0.863,2.312-1.808C31.661,17.134,30.596,16.17,29.179,15.208z"/>
		</g>
	</g>
	<g>
		<g>
			<path fill="#002554" d="M0.896,23.166c0.157,0,0.269,0.009,0.269,0.009v6.368c-0.045,0.26-0.571,0.305-0.896,0.305
				C0.112,29.848,0,29.839,0,29.839V23.47C0.045,23.211,0.571,23.166,0.896,23.166z"/>
			<path fill="#002554" d="M7.311,29.534c-0.022,0.278-0.526,0.322-0.817,0.322c-0.123,0-0.202-0.009-0.202-0.009v-2.974
				c0-0.367-0.067-0.636-0.213-0.797c-0.179-0.206-0.425-0.313-0.75-0.313c-0.537,0-1.097,0.296-1.456,0.636v3.135
				c-0.022,0.278-0.537,0.322-0.829,0.322c-0.123,0-0.202-0.009-0.202-0.009v-4.353c0.022-0.278,0.537-0.323,0.829-0.323
				c0.123,0,0.202,0.009,0.202,0.009v0.967c0.392-0.313,0.773-0.672,1.321-0.86c0.224-0.072,0.437-0.107,0.638-0.107
				c0.358,0,0.661,0.089,0.918,0.251c0.369,0.233,0.526,0.627,0.56,1.021V29.534z"/>
			<path fill="#002554" d="M11.992,29.024c0,0.009-0.011,0.036-0.011,0.036c-0.146,0.287-0.336,0.511-0.593,0.663
				c-0.258,0.17-0.537,0.251-0.817,0.251c-0.392,0-0.795-0.179-0.974-0.493c-0.09-0.161-0.135-0.403-0.135-0.735v-3.09H8.767
				c-0.123,0-0.224-0.081-0.224-0.179s0.101-0.17,0.224-0.17h0.694v-1.191c0.022-0.313,0.638-0.322,0.907-0.322h0.123v1.514h1.131
				c0.112,0,0.213,0.072,0.213,0.17s-0.101,0.179-0.213,0.179h-1.131v2.982c0,0.296,0.056,0.493,0.168,0.6
				c0.101,0.098,0.235,0.152,0.403,0.152c0.145,0,0.28-0.036,0.403-0.099c0.112-0.063,0.202-0.143,0.28-0.26
				c0,0,0.034-0.045,0.067-0.045h0.112C11.958,28.988,11.992,28.997,11.992,29.024z"/>
			<path fill="#002554" d="M15.385,29.982c-0.672,0-1.243-0.206-1.724-0.627c-0.47-0.412-0.717-0.976-0.717-1.684
				c0-0.761,0.246-1.361,0.739-1.792c0.493-0.43,1.108-0.636,1.847-0.636c0.627,0,1.142,0.161,1.545,0.493
				c0.403,0.331,0.605,0.77,0.605,1.325h-3.863v0.054c0,0.636,0.202,1.138,0.605,1.505c0.403,0.376,0.885,0.573,1.433,0.573
				c0.918,0,1.276-0.448,1.601-0.994c0.011-0.027,0.034-0.054,0.067-0.054c0.011,0,0.056,0.018,0.089,0.036
				c0.011,0.009,0.034,0.018,0.034,0.054c0,0.036-0.011,0.072-0.022,0.117c-0.101,0.412-0.358,0.779-0.694,1.084
				C16.527,29.803,16.012,29.982,15.385,29.982z M13.817,26.775h2.586c-0.022-0.286-0.067-0.483-0.134-0.6
				c-0.101-0.188-0.246-0.331-0.448-0.43c-0.202-0.107-0.414-0.161-0.638-0.161c-0.336,0-0.638,0.108-0.907,0.314
				C14.019,26.113,13.862,26.399,13.817,26.775z"/>
			<path fill="#002554" d="M22.304,25.71c0,0.126-0.056,0.233-0.157,0.314c-0.112,0.09-0.235,0.134-0.381,0.134
				c-0.135,0-0.291-0.054-0.47-0.17c-0.168-0.107-0.302-0.161-0.381-0.161c-0.078,0-0.157,0.036-0.235,0.099
				c-0.179,0.125-0.369,0.34-0.56,0.645v2.965c-0.022,0.26-0.47,0.313-0.75,0.313c-0.134,0-0.235-0.009-0.235-0.009v-4.371
				c0.034-0.242,0.493-0.296,0.773-0.296c0.123,0,0.213,0.009,0.213,0.009v0.985c0.459-0.663,0.929-0.985,1.411-0.985
				c0.224,0,0.403,0.053,0.549,0.161C22.226,25.45,22.304,25.566,22.304,25.71z"/>
			<path fill="#002554" d="M27.556,29.534c-0.022,0.278-0.526,0.322-0.817,0.322c-0.123,0-0.201-0.009-0.201-0.009v-2.974
				c0-0.367-0.067-0.636-0.213-0.797c-0.179-0.206-0.426-0.313-0.75-0.313c-0.537,0-1.097,0.296-1.456,0.636v3.135
				c-0.022,0.278-0.537,0.322-0.829,0.322c-0.123,0-0.201-0.009-0.201-0.009v-4.353c0.022-0.278,0.537-0.323,0.828-0.323
				c0.123,0,0.202,0.009,0.202,0.009v0.967c0.392-0.313,0.773-0.672,1.321-0.86c0.224-0.072,0.437-0.107,0.638-0.107
				c0.358,0,0.661,0.089,0.918,0.251c0.37,0.233,0.526,0.627,0.56,1.021V29.534z"/>
			<path fill="#002554" d="M33.065,29.991C33.009,30,32.953,30,32.897,30c-0.101,0-0.202-0.009-0.336-0.018
				c-0.246-0.027-0.504-0.107-0.515-0.304c0-0.045-0.011-0.215-0.011-0.43c-0.571,0.358-0.941,0.564-1.086,0.627
				c-0.224,0.081-0.459,0.117-0.706,0.117c-0.392,0-0.716-0.108-0.963-0.314c-0.258-0.215-0.381-0.502-0.381-0.851
				c0-0.215,0.056-0.403,0.179-0.564c0.168-0.224,0.459-0.439,0.885-0.636c0.414-0.197,1.109-0.439,2.083-0.717v-0.179
				c0-0.448-0.09-0.761-0.269-0.931c-0.179-0.161-0.448-0.251-0.784-0.251c-0.258,0-0.459,0.063-0.616,0.17
				c-0.135,0.098-0.224,0.215-0.224,0.385v0.287c0,0.152-0.045,0.269-0.145,0.349c-0.101,0.081-0.224,0.125-0.381,0.125
				c-0.313,0-0.515-0.224-0.515-0.484c0-0.278,0.179-0.537,0.537-0.77c0.37-0.242,0.873-0.358,1.523-0.358
				c0.504,0,0.918,0.063,1.243,0.197c0.235,0.107,0.403,0.26,0.526,0.484c0.078,0.134,0.123,0.43,0.123,0.869V29.991z
				 M32.046,27.205c-0.627,0.197-1.03,0.341-1.209,0.421c-0.325,0.143-0.56,0.296-0.694,0.457c-0.146,0.152-0.213,0.331-0.213,0.519
				c0,0.376,0.336,0.824,0.873,0.824c0.314,0,0.728-0.17,1.243-0.501V27.205z"/>
			<path fill="#002554" d="M37.745,29.024c0,0.009-0.011,0.036-0.011,0.036c-0.145,0.287-0.336,0.511-0.593,0.663
				c-0.258,0.17-0.537,0.251-0.817,0.251c-0.392,0-0.795-0.179-0.974-0.493c-0.09-0.161-0.135-0.403-0.135-0.735v-3.09H34.52
				c-0.123,0-0.224-0.081-0.224-0.179s0.101-0.17,0.224-0.17h0.694v-1.191c0.023-0.313,0.638-0.322,0.907-0.322h0.123v1.514h1.131
				c0.112,0,0.213,0.072,0.213,0.17s-0.101,0.179-0.213,0.179h-1.131v2.982c0,0.296,0.056,0.493,0.168,0.6
				c0.101,0.098,0.235,0.152,0.403,0.152c0.146,0,0.28-0.036,0.403-0.099c0.112-0.063,0.202-0.143,0.28-0.26
				c0,0,0.034-0.045,0.067-0.045h0.112C37.711,28.988,37.745,28.997,37.745,29.024z"/>
			<path fill="#002554" d="M39.223,23.659c-0.123-0.099-0.19-0.215-0.19-0.358c0-0.134,0.056-0.26,0.179-0.349
				c0.123-0.098,0.28-0.152,0.448-0.152c0.179,0,0.325,0.054,0.448,0.152c0.123,0.09,0.179,0.215,0.179,0.349
				c0,0.143-0.056,0.26-0.179,0.358c-0.123,0.099-0.269,0.143-0.448,0.143C39.492,23.802,39.346,23.757,39.223,23.659z
				 M40.175,29.525c-0.022,0.278-0.537,0.323-0.828,0.323c-0.123,0-0.201-0.009-0.201-0.009v-4.353
				c0.022-0.278,0.537-0.322,0.829-0.322c0.123,0,0.201,0.009,0.201,0.009V29.525z"/>
			<path fill="#002554" d="M46.994,27.501c0,0.403-0.123,0.815-0.369,1.236c-0.246,0.412-0.582,0.726-1.008,0.941
				c-0.426,0.215-0.907,0.314-1.422,0.314c-0.862,0-1.534-0.269-2.038-0.815c-0.437-0.457-0.638-0.976-0.638-1.541
				c0-0.421,0.123-0.833,0.381-1.245c0.257-0.412,0.605-0.716,1.019-0.913c0.426-0.197,0.873-0.296,1.344-0.296
				c0.851,0,1.545,0.26,2.06,0.788C46.77,26.408,46.994,26.928,46.994,27.501z M45.84,27.886c0-0.806-0.224-1.442-0.649-1.908
				c-0.302-0.313-0.672-0.475-1.131-0.475c-0.537,0-0.974,0.305-1.187,0.708c-0.134,0.26-0.213,0.591-0.213,1.003
				c0,0.663,0.168,1.227,0.504,1.711c0.325,0.474,0.75,0.716,1.288,0.716c0.403,0,0.739-0.134,0.997-0.394
				C45.706,28.979,45.84,28.531,45.84,27.886z"/>
			<path fill="#002554" d="M52.581,29.534c-0.022,0.278-0.526,0.322-0.817,0.322c-0.123,0-0.202-0.009-0.202-0.009v-2.974
				c0-0.367-0.067-0.636-0.213-0.797c-0.179-0.206-0.425-0.313-0.75-0.313c-0.537,0-1.097,0.296-1.456,0.636v3.135
				c-0.022,0.278-0.537,0.322-0.829,0.322c-0.123,0-0.201-0.009-0.201-0.009v-4.353c0.022-0.278,0.537-0.323,0.829-0.323
				c0.123,0,0.201,0.009,0.201,0.009v0.967c0.392-0.313,0.772-0.672,1.321-0.86c0.224-0.072,0.437-0.107,0.638-0.107
				c0.359,0,0.661,0.089,0.918,0.251c0.369,0.233,0.526,0.627,0.56,1.021V29.534z"/>
			<path fill="#002554" d="M58.09,29.991C58.034,30,57.978,30,57.922,30c-0.101,0-0.202-0.009-0.336-0.018
				c-0.246-0.027-0.504-0.107-0.515-0.304c0-0.045-0.011-0.215-0.011-0.43c-0.571,0.358-0.94,0.564-1.086,0.627
				c-0.224,0.081-0.459,0.117-0.705,0.117c-0.392,0-0.717-0.108-0.963-0.314c-0.257-0.215-0.381-0.502-0.381-0.851
				c0-0.215,0.056-0.403,0.179-0.564c0.168-0.224,0.459-0.439,0.885-0.636c0.414-0.197,1.108-0.439,2.082-0.717v-0.179
				c0-0.448-0.089-0.761-0.269-0.931c-0.179-0.161-0.448-0.251-0.784-0.251c-0.257,0-0.459,0.063-0.616,0.17
				c-0.134,0.098-0.224,0.215-0.224,0.385v0.287c0,0.152-0.045,0.269-0.146,0.349c-0.101,0.081-0.224,0.125-0.381,0.125
				c-0.314,0-0.515-0.224-0.515-0.484c0-0.278,0.179-0.537,0.537-0.77c0.37-0.242,0.873-0.358,1.523-0.358
				c0.504,0,0.918,0.063,1.243,0.197c0.235,0.107,0.403,0.26,0.526,0.484c0.078,0.134,0.123,0.43,0.123,0.869V29.991z
				 M57.071,27.205c-0.627,0.197-1.03,0.341-1.209,0.421c-0.325,0.143-0.56,0.296-0.694,0.457c-0.145,0.152-0.213,0.331-0.213,0.519
				c0,0.376,0.336,0.824,0.873,0.824c0.313,0,0.728-0.17,1.243-0.501V27.205z"/>
			<path fill="#002554" d="M60.766,29.615c-0.112,0.197-0.537,0.233-0.795,0.233c-0.123,0-0.202-0.009-0.202-0.009v-6.574
				c0-0.081,0-0.152,0.034-0.233c0.112-0.197,0.537-0.233,0.795-0.233c0.123,0,0.202,0.009,0.202,0.009v6.664
				C60.8,29.516,60.789,29.57,60.766,29.615z"/>
		</g>
	</g>
</g>
</svg>
